# xmcd
#
# Track frame offsets: 
#        150
#        32132
#        59348
#        84986
#        111902
#        143298
#        167864
#        199518
#        224660
#        250978
#
# Disc length: 3653 seconds
#
# Revision: 0
# Processed by: cddbd v1.5.2PL0 Copyright (c) Steve Scherf et al.
# Submitted via: ExactAudioCopy v1.0b3
#
DISCID=8a0e430a
DTITLE=Hoang Lan - Xa Cuoc Tinh Xua
DYEAR=2005
DGENRE=
TTITLE0=Xa cuoc tinh xua
TTITLE1=Hoang Lan, Truong Vu - Tinh yeu tra lai trang sao
TTITLE2=Gio lanh dem he
TTITLE3=Hoang Lan, Manh Dinh - Vang tran suy tu
TTITLE4=Vang trang don chiec
TTITLE5=Truong Vu - Trai tim co don
TTITLE6=Hoang Lan, Duy Vu - Nguoi da nhu mo
TTITLE7=Manh Dinh - Bai tho cho em
TTITLE8=Den vang hoa chuc
TTITLE9=Truong Vu - Phan ngheo
EXTD=
EXTT0=
EXTT1=
EXTT2=
EXTT3=
EXTT4=
EXTT5=
EXTT6=
EXTT7=
EXTT8=
EXTT9=
PLAYORDER=
